#!OML:ASF E:\Mandelcareful walks\Project 1\Capture day 1\Session 1\Subject1.ASF
:FULLY-SPECIFIED
:DEGREES
560
root -8.99768 13.6043 1.1866 -258.746 82.5611 84.1495
lowerback 29.0755 1.94859 -6.73271
upperback 8.07718 0.959525 -6.90523
thorax -6.83415 0.940233 -4.24615
lowerneck -5.63818 24.3463 19.3364
upperneck 8.65739 35.9468 -26.8374
head 12.5055 16.3583 -5.22821
rclavicle -2.70347e-014 1.03368e-014
rhumerus 44.8314 -28.4291 -23.6151
rradius 130.97
rwrist -57.5884
rhand -18.8965 -14.6774
rfingers 7.12502
rthumb 7.40504 -44.5278
lclavicle -2.70347e-014 1.03368e-014
lhumerus -16.0068 -52.2573 64.3772
lradius 86.3977
lwrist -0.157014
lhand -18.8193 -20.7836
lfingers 7.12502
lthumb 7.47958 9.06417
rfemur -57.7211 -26.1399 -0.0108486
rtibia 77.7346
rfoot -26.3062 -4.09373
rtoes -18.265
lfemur -65.5238 15.0119 -19.5095
ltibia 76.5853
lfoot -21.3629 0.471381
ltoes -14.5326
561
root -8.97535 13.6123 1.22979 -253.823 82.5316 89.0691
lowerback 29.0455 1.88111 -6.62376
upperback 8.06642 0.911566 -6.91695
thorax -6.83309 0.91937 -4.30446
lowerneck -5.52632 24.213 19.5703
upperneck 8.77456 35.7388 -26.6857
head 12.4867 16.2797 -5.28713
rclavicle -1.35174e-014 4.17448e-014
rhumerus 45.1496 -28.4598 -23.8705
rradius 131.252
rwrist -57.5632
rhand -18.943 -14.8784
rfingers 7.12502
rthumb 7.36012 -44.7304
lclavicle -1.35174e-014 4.17448e-014
lhumerus -16.0683 -52.3069 64.448
lradius 86.3349
lwrist -0.276789
lhand -18.5343 -20.8478
lfingers 7.12502
lthumb 7.75461 8.99002
rfemur -57.3683 -26.4067 0.0812756
rtibia 77.8607
rfoot -26.5135 -4.49843
rtoes -18.7713
lfemur -65.4732 14.762 -19.4207
ltibia 76.3531
lfoot -21.1067 0.269451
ltoes -15.0243
562
root -8.94377 13.622 1.26736 -251.181 82.4957 91.8325
lowerback 29.0001 1.93781 -6.69362
upperback 8.16807 0.996708 -6.90684
thorax -6.69258 0.965476 -4.27517
lowerneck -6.30988 24.0995 19.1644
upperneck 9.41156 35.389 -25.6841
head 12.4372 16.0516 -4.98613
rclavicle -4.09496e-014 7.79236e-014
rhumerus 45.5808 -28.7106 -24.1268
rradius 131.581
rwrist -57.8912
rhand -19.1152 -15.3032
rfingers 7.12502
rthumb 7.19394 -45.161
lclavicle -4.09496e-014 7.79236e-014
lhumerus -15.8466 -52.3223 64.3305
lradius 86.3138
lwrist -0.300894
lhand -18.402 -21.1718
lfingers 7.12502
lthumb 7.88232 8.66129
rfemur -56.9037 -26.3516 0.0686889
rtibia 77.9066
rfoot -26.6292 -4.9225
rtoes -19.3598
lfemur -65.1593 14.7538 -19.3288
ltibia 76.1323
lfoot -21.035 0.0129661
ltoes -14.8982
563
root -8.89693 13.6423 1.29994 -252.979 82.6643 90.4391
lowerback 29.158 2.23139 -6.93761
upperback 8.28953 1.31617 -6.8868
thorax -6.62057 1.12517 -4.22629
lowerneck -6.44093 23.956 19.4768
upperneck 9.54311 35.2242 -25.8335
head 12.5754 15.9552 -5.09578
rclavicle -3.29983e-014 -4.29375e-014
rhumerus 46.0878 -28.762 -24.4252
rradius 131.737
rwrist -57.9823
rhand -19.2255 -15.5835
rfingers 7.12502
rthumb 7.08749 -45.4449
lclavicle -3.29983e-014 -4.29375e-014
lhumerus -15.7641 -52.3122 64.3103
lradius 86.3131
lwrist -0.284741
lhand -18.3952 -21.2536
lfingers 7.12502
lthumb 7.88887 8.57918
rfemur -56.1831 -25.6699 0.0825007
rtibia 77.8546
rfoot -26.8221 -5.28576
rtoes -19.5615
lfemur -64.2749 15.2815 -19.0071
ltibia 75.931
lfoot -21.2115 -0.461766
ltoes -13.9855
564
root -8.89203 13.6345 1.33312 -248.104 82.5264 95.0541
lowerback 29.0621 2.0937 -6.89414
upperback 8.18474 1.14645 -6.89787
thorax -6.69874 1.04244 -4.20498
lowerneck -6.1646 23.9333 19.7104
upperneck 9.41763 35.2549 -26.0916
head 12.6005 15.9926 -5.21406
rclavicle -3.57812e-015 2.98177e-014
rhumerus 46.6022 -28.6314 -24.7386
rradius 131.816
rwrist -58.0178
rhand -19.3014 -15.9181
rfingers 7.12502
rthumb 7.01426 -45.7819
lclavicle -3.57812e-015 2.98177e-014
lhumerus -15.9438 -52.3299 64.4283
lradius 86.247
lwrist -0.356984
lhand -18.6049 -21.3094
lfingers 7.12502
lthumb 7.68649 8.53092
rfemur -56.3049 -26.0151 0.203365
rtibia 77.9798
rfoot -26.8405 -5.61262
rtoes -19.2758
lfemur -64.6997 14.9541 -19.0295
ltibia 75.8147
lfoot -20.9721 -0.695461
ltoes -13.7649
565
root -8.88271 13.631 1.36006 -244.572 82.332 98.4603
lowerback 29.0803 2.01319 -6.91742
upperback 8.11883 1.02738 -6.93336
thorax -6.78474 0.987779 -4.19574
lowerneck -6.02114 23.9899 19.732
upperneck 9.25858 35.3275 -26.1585
head 12.5521 16.0452 -5.22704
rclavicle -6.12257e-014 -3.93594e-014
rhumerus 46.9463 -28.5842 -24.8857
rradius 131.841
rwrist -58.0517
rhand -19.335 -15.997
rfingers 7.12502
rthumb 6.98178 -45.8618
lclavicle -6.12257e-014 -3.93594e-014
lhumerus -15.8736 -52.4191 64.3639
lradius 86.1584
lwrist -0.426277
lhand -18.7196 -21.3064
lfingers 7.12502
lthumb 7.57585 8.53788
rfemur -56.2804 -26.2761 0.195532
rtibia 78.1091
rfoot -26.928 -5.89211
rtoes -19.0346
lfemur -64.9072 14.69 -19.1119
ltibia 75.6944
lfoot -20.7959 -0.684147
ltoes -14.188
566
root -8.82592 13.6514 1.35894 -248.937 82.5212 94.4595
lowerback 29.0746 2.30901 -7.10057
upperback 8.22654 1.37094 -7.03675
thorax -6.64682 1.15803 -4.32234
lowerneck -6.16544 23.9934 19.6777
upperneck 9.16544 35.2972 -26.1838
head 12.5308 16.0232 -5.22305
rclavicle 2.54444e-014 1.47101e-014
rhumerus 47.2655 -28.5867 -24.9484
rradius 131.591
rwrist -57.8556
rhand -19.2649 -15.4124
rfingers 7.12502
rthumb 7.04943 -45.275
lclavicle 2.54444e-014 1.47101e-014
lhumerus -15.6849 -52.4459 64.2221
lradius 86.1012
lwrist -0.420478
lhand -18.8488 -21.212
lfingers 7.12502
lthumb 7.45106 8.63681
rfemur -55.7035 -25.5901 0.0474027
rtibia 77.9886
rfoot -27.0603 -5.96631
rtoes -18.975
lfemur -64.0436 15.2615 -19.0165
ltibia 75.5906
lfoot -21.0572 -0.520359
ltoes -14.6485
567
root -8.82416 13.6449 1.37704 -245.304 82.379 97.8147
lowerback 28.9039 2.16643 -7.11071
upperback 8.15507 1.19344 -7.02567
thorax -6.65223 1.07049 -4.23619
lowerneck -6.17145 23.9906 19.6139
upperneck 9.0692 35.2841 -26.2279
head 12.4913 16.0204 -5.235
rclavicle -1.43125e-014 6.75868e-014
rhumerus 47.6252 -28.5962 -25.0285
rradius 131.331
rwrist -57.7343
rhand -19.1253 -15.0608
rfingers 7.12502
rthumb 7.18419 -44.9188
lclavicle -1.43125e-014 6.75868e-014
lhumerus -15.6471 -52.3159 64.2494
lradius 86.0379
lwrist -0.429959
lhand -18.8306 -21.2613
lfingers 7.12502
lthumb 7.46866 8.58683
rfemur -55.9237 -25.9499 0.147578
rtibia 78.0718
rfoot -26.9616 -6.16794
rtoes -19.1604
lfemur -64.4851 14.9477 -19.0758
ltibia 75.5578
lfoot -20.8401 -0.595319
ltoes -14.7304
568
root -8.79623 13.6586 1.3849 -245.022 82.515 98.3088
lowerback 29.0464 2.25894 -7.10256
upperback 8.16246 1.30345 -6.96727
thorax -6.71058 1.12341 -4.22014
lowerneck -6.10422 23.9445 19.5617
upperneck 9.14049 35.2478 -26.1864
head 12.4774 16.0069 -5.24021
rclavicle -2.18663e-014 5.12864e-014
rhumerus 47.6045 -28.5286 -24.8355
rradius 131.162
rwrist -57.6994
rhand -19.0975 -15.2012
rfingers 7.12502
rthumb 7.21103 -45.0584
lclavicle -2.18663e-014 5.12864e-014
lhumerus -15.6869 -52.2891 64.4796
lradius 85.9398
lwrist -0.439225
lhand -18.3886 -21.2204
lfingers 7.12502
lthumb 7.89527 8.61221
rfemur -55.4376 -25.7698 0.192554
rtibia 77.9239
rfoot -27.0481 -6.25629
rtoes -19.6149
lfemur -64.0412 15.0168 -18.8042
ltibia 75.5288
lfoot -21.0237 -0.877239
ltoes -14.3295
569
root -8.76734 13.6712 1.38693 -245.44 82.6505 98.103
lowerback 29.1633 2.40351 -7.0381
upperback 8.16077 1.49342 -6.96126
thorax -6.76293 1.2147 -4.32308
lowerneck -6.15753 23.951 19.4649
upperneck 9.43134 35.2639 -25.8869
head 12.5024 16.0007 -5.13278
rclavicle 7.95139e-016 -4.69132e-014
rhumerus 47.3125 -28.3667 -24.5073
rradius 130.917
rwrist -57.6343
rhand -19.1828 -15.1838
rfingers 7.12502
rthumb 7.12871 -45.0437
lclavicle 7.95139e-016 -4.69132e-014
lhumerus -15.8225 -52.4223 64.7429
lradius 85.9382
lwrist -0.590424
lhand -18.0863 -20.961
lfingers 7.12502
lthumb 8.18707 8.86041
rfemur -55.0044 -25.5827 0.202693
rtibia 77.8263
rfoot -27.1983 -6.25059
rtoes -19.8812
lfemur -63.5984 15.1132 -18.5742
ltibia 75.5381
lfoot -21.2403 -1.02284
ltoes -13.9178
570
root -8.74278 13.6781 1.38462 -245.503 82.7203 98.1083
lowerback 29.1843 2.48886 -6.99269
upperback 8.14417 1.60833 -6.99221
thorax -6.78714 1.26988 -4.42656
lowerneck -5.95282 23.8758 19.683
upperneck 9.20604 35.1487 -26.0728
head 12.4456 15.9811 -5.268
rclavicle 0 1.43125e-014
rhumerus 47.1235 -28.237 -24.3655
rradius 130.734
rwrist -57.7576
rhand -19.1119 -15.3829
rfingers 7.12502
rthumb 7.1971 -45.2405
lclavicle 0 1.43125e-014
lhumerus -15.9752 -52.4618 64.912
lradius 86.0175
lwrist -0.856249
lhand -18.2053 -20.8036
lfingers 7.12502
lthumb 8.0722 9.02221
rfemur -54.7828 -25.562 0.221421
rtibia 77.7654
rfoot -27.2552 -6.25027
rtoes -19.9266
lfemur -63.3869 15.1328 -18.4768
ltibia 75.5315
lfoot -21.3162 -1.00932
ltoes -13.8377
571
root -8.73305 13.6781 1.3831 -244.604 82.6754 98.883
lowerback 29.2046 2.516 -7.00029
upperback 8.03877 1.61668 -7.03362
thorax -6.91577 1.27239 -4.47983
lowerneck -5.9482 23.9259 19.89
upperneck 9.20836 35.1942 -26.0475
head 12.4884 16.0052 -5.26044
rclavicle 4.92986e-014 -2.42517e-014
rhumerus 46.7983 -28.0622 -24.2478
rradius 130.698
rwrist -57.9807
rhand -19.2986 -15.9852
rfingers 7.12502
rthumb 7.01689 -45.8489
lclavicle 4.92986e-014 -2.42517e-014
lhumerus -16.0646 -52.5803 65.0478
lradius 85.9935
lwrist -0.867915
lhand -18.4198 -20.8883
lfingers 7.12502
lthumb 7.86513 8.94542
rfemur -54.8457 -25.7115 0.241387
rtibia 77.8234
rfoot -27.3448 -6.24532
rtoes -19.8673
lfemur -63.5942 15.0257 -18.5396
ltibia 75.587
lfoot -21.2875 -0.830611
ltoes -14.7863
